<!-- Generated by IcoMoon.io -->
<svg version="1.1" xmlns="http://www.w3.org/2000/svg" width="1892" height="1024" viewBox="0 0 1892 1024">
<title></title>
<g id="icomoon-ignore">
</g>
<path d="M779.13 256l78.002 73.839-144.785-0.089v358.266h378.435v-136.982l77.913 73.761v-368.796h-389.565zM1087.354 542.364l-221.162-209.363h221.162v209.363zM1018.691 635.603h-246.461v-240.929h17.419v224.623h229.042v16.306zM830.442 735.722l-9.105 18.755-9.105-18.755h-7.635l13.29 24.999v14.57h6.901v-14.57l13.267-24.999h-7.613zM841.884 775.29l3.206-9.216h15.327l3.228 9.216h7.179l-14.97-39.569h-6.177l-14.937 39.569h7.146zM852.747 744.125l5.732 16.406h-11.464l5.732-16.417zM888.999 759.585c-0.935 1.395-1.492 3.111-1.492 4.957 0 0.022 0 0.044 0 0.066v-0.003c0 3.339 1.169 6.044 3.506 8.125 2.349 2.070 5.487 3.105 9.394 3.105 3.918 0 7.29-1.069 10.118-3.183l2.226 2.638h7.658l-5.81-6.879c2.282-3.117 3.428-7.112 3.428-11.976h-5.743c0 2.66-0.557 5.075-1.647 7.246l-7.647-9.016 2.694-1.959c1.637-1.11 3.005-2.484 4.073-4.076l0.034-0.054c0.783-1.284 1.247-2.837 1.247-4.498 0-0.023 0-0.046 0-0.069v0.004c0.001-0.046 0.001-0.1 0.001-0.154 0-2.436-1.069-4.623-2.764-6.116l-0.009-0.008c-1.759-1.593-4.103-2.568-6.676-2.568-0.138 0-0.275 0.003-0.412 0.008l0.020-0.001c-3.183 0-5.721 0.913-7.602 2.716-1.892 1.803-2.827 4.241-2.827 7.346 0 1.269 0.301 2.582 0.89 3.94 0.623 1.358 1.703 3.005 3.228 4.942-2.927 2.104-4.897 3.918-5.888 5.454zM906.852 768.334c-1.693 1.372-3.869 2.209-6.24 2.226h-0.004c-0.095 0.005-0.207 0.008-0.319 0.008-1.704 0-3.255-0.655-4.416-1.726l0.004 0.004c-1.095-1.077-1.774-2.575-1.774-4.231 0-0.078 0.001-0.155 0.004-0.232v0.011c0-2.115 1.091-4.007 3.261-5.654l0.846-0.601 8.637 10.195zM899.762 750.803c-1.87-2.304-2.805-4.207-2.805-5.732 0-1.325 0.39-2.415 1.146-3.283 0.713-0.809 1.752-1.317 2.91-1.317 0.057 0 0.114 0.001 0.17 0.004h-0.008c0.042-0.002 0.092-0.002 0.142-0.002 1.091 0 2.084 0.425 2.821 1.117l-0.002-0.002c0.779 0.735 1.169 1.603 1.169 2.638 0.001 0.040 0.002 0.087 0.002 0.134 0 1.472-0.649 2.792-1.677 3.69l-0.006 0.005-0.846 0.69-3.016 2.059zM964.163 772.296c2.716-2.371 4.274-5.677 4.675-9.884h-6.845c-0.367 2.827-1.224 4.842-2.582 6.055-1.358 1.224-3.395 1.825-6.088 1.825-2.95 0-5.198-1.124-6.745-3.373-1.514-2.248-2.282-5.51-2.282-9.795v-3.495c0.045-4.23 0.857-7.413 2.449-9.594 1.614-2.193 3.918-3.283 6.901-3.283 2.571 0 4.519 0.634 5.843 1.892 1.336 1.258 2.17 3.306 2.504 6.144h6.845c-0.445-4.33-1.981-7.68-4.653-10.051-2.66-2.371-6.177-3.562-10.541-3.562-3.239 0-6.099 0.779-8.582 2.315-2.487 1.591-4.436 3.826-5.638 6.473l-0.038 0.094c-1.262 2.768-1.997 6.004-1.997 9.411 0 0.162 0.002 0.324 0.005 0.486v-0.024 3.695c0.056 3.64 0.735 6.834 2.037 9.594 1.313 2.749 3.161 4.875 5.543 6.378 2.415 1.491 5.198 2.226 8.348 2.226 4.508 0 8.125-1.169 10.841-3.528zM1004.566 766.753c1.336-2.927 2.015-6.344 2.015-10.218v-2.193c0.002-0.126 0.004-0.274 0.004-0.422 0-3.518-0.76-6.859-2.124-9.868l0.061 0.15c-1.258-2.793-3.247-5.069-5.726-6.642l-0.062-0.037c-2.493-1.558-5.343-2.337-8.57-2.337s-6.077 0.779-8.582 2.36c-2.482 1.558-4.408 3.807-5.788 6.767-1.29 2.864-2.042 6.208-2.042 9.729 0 0.172 0.002 0.344 0.005 0.515v-0.026 2.226c0.022 3.784 0.701 7.123 2.059 10.017 1.38 2.905 3.317 5.142 5.821 6.723 2.515 1.558 5.376 2.337 8.582 2.337 3.25 0 6.111-0.779 8.593-2.337 2.493-1.581 4.419-3.829 5.754-6.745zM997.209 744.381c1.67 2.337 2.493 5.71 2.493 10.095v2.059c0 4.452-0.824 7.847-2.471 10.162-1.625 2.326-3.962 3.484-7.012 3.484-0.085 0.003-0.184 0.005-0.284 0.005-2.8 0-5.272-1.401-6.755-3.539l-0.018-0.027c-1.692-2.371-2.527-5.732-2.527-10.084v-2.282c0.033-4.252 0.89-7.546 2.549-9.862 1.488-2.133 3.93-3.511 6.694-3.511 0.104 0 0.208 0.002 0.311 0.006h-0.015c3.039 0 5.387 1.169 7.034 3.506z"></path>
</svg>
