<!-- Generated by IcoMoon.io -->
<svg version="1.1" xmlns="http://www.w3.org/2000/svg" width="1892" height="1024" viewBox="0 0 1892 1024">
<title></title>
<g id="icomoon-ignore">
</g>
<path d="M653.991 676.007c2.716 3.072 4.152 6.923 4.085 10.874 0.014 0.246 0.021 0.534 0.021 0.823 0 2.432-0.545 4.736-1.521 6.798l0.041-0.097c-1.171 2.478-2.819 4.554-4.842 6.185l-0.033 0.026c-4.609 3.175-10.312 5.072-16.458 5.072-0.675 0-1.345-0.023-2.008-0.068l0.090 0.005h-32.323v-68.897h31.655c0.56-0.039 1.213-0.061 1.872-0.061 5.824 0 11.245 1.725 15.78 4.692l-0.11-0.068c2.048 1.581 3.673 3.562 4.73 5.788 1.069 2.248 1.547 4.675 1.414 7.123 0.178 3.784-1.113 7.535-3.673 10.529-2.46 2.738-5.855 4.63-9.639 5.387 4.285 0.712 8.159 2.805 10.908 5.899zM616.081 665.611h13.535c3.072 0.2 6.122-0.612 8.604-2.293 0.984-0.816 1.766-1.841 2.283-3.008l0.021-0.052c0.398-0.89 0.629-1.929 0.629-3.021 0-0.229-0.010-0.457-0.030-0.681l0.002 0.029c0.014-0.173 0.022-0.376 0.022-0.58 0-1.114-0.233-2.174-0.653-3.133l0.020 0.050c-0.532-1.218-1.298-2.244-2.248-3.063l-0.011-0.009c-2.184-1.483-4.879-2.368-7.781-2.368-0.38 0-0.756 0.015-1.128 0.045l0.049-0.003h-13.323v18.087zM639.544 692.035c1.056-0.838 1.9-1.896 2.471-3.108l0.022-0.053c0.454-0.968 0.72-2.103 0.72-3.3 0-0.19-0.007-0.379-0.020-0.565l0.001 0.025c0.010-0.151 0.016-0.327 0.016-0.505 0-1.231-0.277-2.397-0.771-3.44l0.021 0.049c-0.608-1.27-1.467-2.332-2.519-3.158l-0.019-0.014c-2.328-1.579-5.199-2.521-8.29-2.521-0.318 0-0.634 0.010-0.947 0.030l0.043-0.002h-14.191v18.955h14.381c3.228 0.167 6.433-0.668 9.082-2.393zM718.692 705.636l-17.597-26.936h-6.623v26.936h-15.149v-68.909h28.683c0.612-0.044 1.325-0.070 2.045-0.070 6.747 0 12.975 2.225 17.99 5.98l-0.078-0.056c4.007 3.74 6.433 8.671 6.823 13.891 0.032 0.433 0.051 0.938 0.051 1.447 0 5.023-1.789 9.628-4.764 13.213l0.028-0.034c-3.558 3.662-8.27 6.186-13.547 6.985l-0.132 0.016 18.755 27.537h-16.473zM694.472 669.306h12.388c8.604 0 12.911-3.473 12.911-10.429 0.010-0.166 0.016-0.36 0.016-0.555 0-1.305-0.264-2.549-0.741-3.681l0.023 0.062c-0.583-1.402-1.417-2.592-2.455-3.568l-0.005-0.005c-2.353-1.776-5.326-2.844-8.549-2.844-0.423 0-0.841 0.018-1.255 0.054l0.054-0.004h-12.533l0.145 20.97zM801.503 691.757h-30.186l-5.331 13.88h-15.883l27.715-68.141h17.174l27.615 68.141h-15.872l-5.22-13.869zM797.462 681.327l-11.030-29.084-11.030 29.084h22.061zM905.149 705.636h-15.026l-33.725-46.859v46.859h-15.004v-68.92h15.004l33.725 47.137v-47.137h15.026v68.92zM990.976 689.141c-3.117 5.198-7.847 9.439-13.613 12.154-5.846 2.751-12.696 4.357-19.922 4.357-0.431 0-0.861-0.006-1.289-0.017l0.063 0.001h-26.758v-68.909h26.769c0.375-0.010 0.816-0.016 1.259-0.016 7.203 0 14.042 1.564 20.194 4.37l-0.305-0.124c5.743 2.671 10.496 6.856 13.601 12.021 3.094 5.61 4.708 11.798 4.708 18.087 0 6.278-1.614 12.466-4.708 18.076zM973.768 687.494c4.081-4.273 6.606-10.063 6.645-16.443v-0.008c0-6.033-2.36-11.865-6.645-16.44-4.661-3.69-10.626-5.919-17.111-5.919-0.606 0-1.207 0.019-1.802 0.058l0.081-0.004h-10.44v44.611h10.44c0.516 0.034 1.12 0.054 1.727 0.054 6.482 0 12.444-2.225 17.164-5.953l-0.058 0.045zM810.919 253.407s194.104 67.094 189.985 164.185v164.218s-193.959-67.117-189.919-164.218l-0.067-164.185zM1173.816 543.366c36.664-23.096 79.059-37.398 123.325-41.606v-51.423c-51 18.009-94.264 50.643-123.325 93.028z"></path>
<path d="M1151.8 558.859c29.997-55.318 82.009-98.003 145.341-119.285v-148.124s-276.424 95.577-270.581 233.839v233.806s12.321-4.274 31.699-12.288c0-7.469 0-15.015 0.89-22.595 5.71-64.178 39.034-123.659 92.65-165.365z"></path>
<path d="M1125.51 645.71c1.447-16.217 4.686-32.256 9.672-47.872-33.391 36.007-53.604 80.696-57.8 127.766-0.412 4.441-0.634 8.882-0.746 13.468 23.058-10.086 40.519-18.67 57.622-27.835l-4.452 2.179c-4.897-22.272-6.344-45.067-4.296-67.706zM1136.495 646.556c-0.54 5.677-0.848 12.275-0.848 18.945 0 14.995 1.557 29.626 4.519 43.741l-0.242-1.38c75.52-41.383 160.378-105.316 157.106-182.573v-6.734c-53.96 5.532-104.437 27.125-143.694 61.473-8.656 19.455-14.639 42.021-16.78 65.695l-0.061 0.831z"></path>
</svg>
