<!-- Generated by IcoMoon.io -->
<svg version="1.1" xmlns="http://www.w3.org/2000/svg" width="1892" height="1024" viewBox="0 0 1892 1024">
<title></title>
<g id="icomoon-ignore">
</g>
<path d="M761.389 724.602c0.178 0 0.356 0.045 0.512 0.111 0.168 0.064 0.312 0.155 0.435 0.268l-0.001-0.001 2.426 2.315c-1.892 1.881-4.218 3.384-6.834 4.408-2.693 1.006-5.805 1.588-9.053 1.588-0.222 0-0.442-0.003-0.663-0.008l0.033 0.001c-3.117 0.056-6.211-0.445-9.094-1.48-2.663-0.965-4.949-2.381-6.88-4.174l0.013 0.012c-1.868-1.771-3.364-3.913-4.373-6.311l-0.046-0.123c-0.987-2.375-1.56-5.134-1.56-8.027 0-0.082 0-0.163 0.001-0.244v0.012c-0.003-0.126-0.005-0.275-0.005-0.424 0-5.668 2.457-10.762 6.365-14.275l0.018-0.016c2.070-1.814 4.552-3.239 7.279-4.196 2.994-1.002 6.177-1.503 9.383-1.469 0.172-0.004 0.375-0.007 0.578-0.007 2.909 0 5.702 0.491 8.303 1.396l-0.177-0.054c2.404 0.913 4.619 2.17 6.534 3.729l-2.037 2.471c-0.147 0.176-0.32 0.324-0.514 0.44l-0.009 0.005c-0.202 0.121-0.446 0.193-0.707 0.193-0.037 0-0.074-0.001-0.11-0.004h0.005c-0.329-0.015-0.634-0.108-0.9-0.261l0.010 0.005-1.080-0.668-1.525-0.846c-1.387-0.677-2.997-1.19-4.688-1.457l-0.098-0.013c-1.008-0.171-2.169-0.269-3.353-0.269-0.093 0-0.186 0.001-0.278 0.002h0.014c-0.066-0.001-0.143-0.001-0.221-0.001-2.334 0-4.573 0.408-6.649 1.157l0.136-0.043c-2.045 0.719-3.805 1.78-5.301 3.129l0.014-0.012c-1.514 1.425-2.671 3.117-3.428 4.953-0.789 1.872-1.248 4.049-1.248 6.333 0 0.070 0 0.141 0.001 0.211v-0.011c-0.001 0.073-0.002 0.159-0.002 0.245 0 2.307 0.459 4.507 1.29 6.513l-0.041-0.113c0.746 1.825 1.892 3.495 3.373 4.931 1.391 1.336 3.117 2.393 5.042 3.061 1.981 0.712 4.107 1.080 6.244 1.057 1.247 0.011 2.482-0.056 3.706-0.211 3.089-0.319 5.841-1.553 8.034-3.423l-0.020 0.017c0.311-0.253 0.709-0.411 1.144-0.423h0.003zM831.488 712.949c0.001 0.073 0.002 0.16 0.002 0.247 0 2.876-0.603 5.611-1.688 8.086l0.051-0.129c-1.077 2.513-2.624 4.638-4.546 6.351l-0.018 0.015c-2.014 1.793-4.404 3.214-7.032 4.129l-0.148 0.045c-2.755 0.937-5.928 1.477-9.227 1.477s-6.473-0.541-9.436-1.538l0.208 0.061c-2.752-0.976-5.122-2.399-7.144-4.203l0.021 0.018c-1.944-1.76-3.506-3.903-4.572-6.314l-0.047-0.119c-1.037-2.427-1.64-5.25-1.64-8.214s0.603-5.788 1.693-8.354l-0.053 0.14c1.035-2.404 2.605-4.597 4.619-6.456 2.026-1.77 4.452-3.139 7.123-4.040 2.753-0.954 5.926-1.504 9.227-1.504s6.474 0.551 9.432 1.565l-0.204-0.061c2.694 0.946 5.131 2.371 7.157 4.185 2.003 1.837 3.562 4.007 4.586 6.355 1.124 2.649 1.681 5.443 1.636 8.259zM825.121 712.949c0.002-0.103 0.003-0.224 0.003-0.345 0-2.249-0.426-4.399-1.202-6.373l0.041 0.118c-1.476-3.797-4.499-6.711-8.275-8.008l-0.095-0.029c-2.002-0.685-4.308-1.081-6.706-1.081s-4.704 0.396-6.856 1.125l0.15-0.044c-1.994 0.708-3.705 1.77-5.138 3.123l0.007-0.007c-1.419 1.345-2.537 2.992-3.253 4.84l-0.031 0.090c-0.733 1.96-1.158 4.225-1.158 6.589s0.424 4.629 1.201 6.723l-0.043-0.134c1.475 3.806 4.521 6.72 8.32 7.986l0.095 0.027c4.319 1.414 9.082 1.414 13.412 0 1.948-0.679 3.695-1.736 5.12-3.083 1.458-1.436 2.56-3.117 3.25-4.931 0.813-2.115 1.202-4.352 1.158-6.589zM879.315 719.861l0.634 1.469c0.245-0.523 0.456-1.002 0.701-1.469 0.271-0.573 0.534-1.047 0.823-1.503l-0.033 0.056 15.505-24.498c0.312-0.423 0.579-0.69 0.89-0.768 0.319-0.088 0.686-0.139 1.064-0.139 0.072 0 0.144 0.002 0.215 0.005h4.576v39.847h-5.432v-30.531c-0.015-0.206-0.023-0.447-0.023-0.69s0.008-0.484 0.025-0.722l-0.002 0.032-15.616 24.843c-0.214 0.384-0.525 0.691-0.901 0.896l-0.012 0.006c-0.378 0.21-0.83 0.334-1.311 0.334-0.009 0-0.018 0-0.026 0h-0.878c-0.010 0-0.022 0-0.033 0-0.478 0-0.926-0.124-1.316-0.341l0.014 0.007c-0.384-0.21-0.692-0.518-0.896-0.89l-0.006-0.012-16.061-24.999v31.978h-5.242v-39.758h4.575c0.064-0.004 0.139-0.006 0.214-0.006 0.379 0 0.746 0.051 1.095 0.146l-0.029-0.007c0.378 0.167 0.668 0.434 0.846 0.768l15.839 24.52c0.286 0.41 0.55 0.878 0.769 1.371l0.021 0.054zM937.672 717.88v14.915h-6.055v-39.78h13.535c2.56-0.045 5.098 0.256 7.558 0.868 1.959 0.49 3.784 1.336 5.343 2.482 1.295 1.027 2.323 2.333 3.001 3.831l0.026 0.065c0.723 1.625 1.069 3.361 1.035 5.098 0.002 0.073 0.003 0.159 0.003 0.246 0 3.594-1.715 6.787-4.372 8.806l-0.027 0.020c-1.558 1.191-3.395 2.093-5.376 2.627-2.048 0.589-4.4 0.928-6.832 0.928-0.169 0-0.338-0.002-0.506-0.005l-7.321-0.111zM937.672 713.606h7.346c1.592 0.022 3.183-0.189 4.708-0.601 1.299-0.383 2.43-0.969 3.419-1.732l-0.024 0.018c1.705-1.411 2.783-3.527 2.783-5.895 0-0.033 0-0.065-0.001-0.098v0.005c0.009-0.128 0.014-0.278 0.014-0.428 0-1.019-0.227-1.986-0.632-2.852l0.017 0.041c-0.51-1.081-1.225-1.988-2.101-2.705l-0.014-0.011c-2.027-1.361-4.523-2.173-7.208-2.173-0.338 0-0.674 0.013-1.005 0.038l0.044-0.003h-7.346v16.395zM1019.247 732.85h-4.786c-0.027 0.001-0.059 0.002-0.091 0.002-0.463 0-0.893-0.138-1.253-0.374l0.009 0.005c-0.339-0.237-0.61-0.548-0.795-0.91l-0.006-0.014-4.118-9.617h-20.736l-4.274 9.617c-0.377 0.771-1.156 1.292-2.056 1.292-0.021 0-0.041 0-0.062-0.001h-4.805l18.209-39.847h6.311l18.454 39.847zM989.195 718.058h17.119l-7.213-16.217c-0.557-1.224-1.002-2.471-1.369-3.74l-0.701 2.081c-0.211 0.634-0.445 1.224-0.668 1.692l-7.157 16.184zM1045.471 693.203c0.356 0.167 0.668 0.412 0.902 0.701l26.557 30.041v-30.931h5.432v39.847h-3.027c-0.020 0.001-0.044 0.001-0.068 0.001-0.426 0-0.831-0.090-1.197-0.253l0.019 0.007c-0.381-0.191-0.706-0.437-0.977-0.732l-0.002-0.002-26.513-30.008c0.014 0.205 0.022 0.444 0.022 0.685s-0.008 0.48-0.023 0.717l0.002-0.032v29.607h-5.432v-39.847h3.217c0.367 0 0.746 0.067 1.091 0.189zM1123.094 717.011v15.816h-6.066v-15.805l-16.785-23.997h5.432c0.040-0.003 0.086-0.004 0.133-0.004 0.434 0 0.838 0.126 1.178 0.343l-0.009-0.005c0.334 0.267 0.612 0.568 0.824 0.902l10.496 15.482c0.423 0.668 0.79 1.269 1.091 1.848 0.312 0.579 0.545 1.135 0.768 1.681l0.779-1.714c0.301-0.623 0.646-1.224 1.035-1.814l10.351-15.583c0.225-0.325 0.486-0.603 0.782-0.84l0.008-0.006c0.33-0.245 0.745-0.392 1.195-0.392 0.038 0 0.075 0.001 0.113 0.003h5.482l-16.807 24.097zM876.31 626.154c2.649 0.289 5.32 0.523 8.014 0.735 40.949-15.917 75.587-41.962 99.595-74.886 23.997-32.924 36.296-71.268 35.361-110.236l-45.123-39.201c9.171 41.483 4.875 84.369-12.399 123.859-17.286 39.491-46.859 74.017-85.448 99.729z"></path>
<path d="M860.205 624.328l1.213 0.223c41.227-25.633 72.659-61.407 90.223-102.712 17.575-41.305 20.48-86.25 8.348-129.002l-64.278-55.841c25.99 45.902 36.452 97.28 30.163 148.146-6.278 50.866-29.050 99.128-65.67 139.186zM1078.183 487.814c-10.919 42.808-37.443 81.419-75.62 110.102-10.429 7.936-22.198 15.377-34.593 21.774l-1.347 0.632c31.098-7.936 59.67-21.971 83.534-41.027s42.374-42.618 54.094-68.864l-26.067-22.617z"></path>
<path d="M1067.954 481.503l-37.109-32.245c-0.712 36.764-12.744 72.693-34.838 104.047-22.105 31.366-53.471 57.010-90.824 74.273h0.178c8.326 0 16.64-0.445 24.91-1.291 34.916-12.388 65.77-32.089 89.789-57.355 24.031-25.266 40.481-55.296 47.894-87.43zM865.569 313.433l-44.277-38.511c-39.58 13.29-73.617 36.653-97.67 67.027-24.042 30.386-36.975 66.36-37.098 103.224 0.145 40.737 15.928 80.273 44.856 112.339 28.906 32.056 69.309 54.84 114.799 64.712 40.604-42.986 64.378-96.1 67.873-151.63 3.484-55.541-13.501-110.581-48.484-157.162zM1170.254 475.57c-0.156-48.328-22.328-94.642-61.663-128.824-39.335-34.17-92.65-53.437-148.28-53.571-0.142 0-0.309 0-0.477 0-26.72 0-52.402 4.445-76.346 12.637l1.659-0.493 271.082 235.542c8.835-19.189 13.998-41.634 14.024-65.282v-0.010z"></path>
</svg>
