<!-- Generated by IcoMoon.io -->
<svg version="1.1" xmlns="http://www.w3.org/2000/svg" width="1892" height="1024" viewBox="0 0 1892 1024">
<title></title>
<g id="icomoon-ignore">
</g>
<path d="M913.965 244.135h-1.525c-1.938-0.112-4.384-0.2-6.84-0.243l-0.172-0.002h-5.064c-4.419 0-8.927 0.111-13.401 0.334-0.152-0.012-0.328-0.018-0.506-0.018s-0.355 0.007-0.53 0.020l0.023-0.001c-42.972 2.506-82.865 13.255-118.927 30.682l1.879-0.819-4.819 2.315v246.45l11.264-3.829c9.884-3.395 20.413-6.456 31.31-9.283 26.921-7.201 57.908-11.541 89.841-11.963l0.26-0.003v32.378c-4.029 0.022-7.936 0.134-11.854 0.334h-0.935c-25.301 1.421-49.006 5.219-71.828 11.199l2.508-0.558c-31.367 7.975-58.854 19.001-84.401 33.107l1.813-0.918v-316.071c24.945-14.828 53.799-26.912 84.357-34.741l2.293-0.498c24.473-6.581 52.59-10.416 81.585-10.529h4.821c5.688 0.145 11.242 0.401 16.451 0.79 13.724 0.968 27.336 3.139 40.682 6.478v31.878c-11.354-2.782-24.819-4.892-38.592-5.896l-0.821-0.048-0.813-0.067c-2.344-0.253-5.141-0.426-7.968-0.477l-0.091-0.001zM970.051 276.714c7.068 0.545 14.381 0.801 21.793 0.801 30.554-0.119 60.117-4.132 88.291-11.567l-2.442 0.548c31.36-8.001 58.833-19.028 84.377-33.122l-1.823 0.922v310.428c-24.948 14.817-53.805 26.899-84.362 34.739l-2.3 0.5c-24.474 6.558-52.595 10.384-81.59 10.507h-0.074c-0.596 0.005-1.3 0.008-2.005 0.008-21.281 0-41.94-2.666-61.661-7.682l1.725 0.372v-312.454c4.786 1.113 9.717 2.126 14.726 2.972 8.225 1.391 16.896 2.404 25.344 3.027zM1128.036 279.118l-11.264 3.795c-10.351 3.484-20.814 6.6-31.31 9.372-28.046 7.507-60.267 11.876-93.489 11.998h-0.074c-7.346 0-14.102-0.2-20.636-0.623l-8.982-0.59v253.518l7.713 0.668c7.146 0.634 14.525 0.946 21.96 0.946 26.233-0.116 51.603-3.589 75.772-10.011l-2.089 0.472c22.085-5.611 41.248-12.695 59.416-21.507l-1.838 0.804 4.819-2.315v-246.517z"></path>
<path d="M753.942 681.316c-3.023-3.131-7.257-5.075-11.945-5.075-0.207 0-0.413 0.004-0.617 0.011l0.030-0.001c-0.075-0.001-0.164-0.002-0.252-0.002-2.517 0-4.917 0.5-7.106 1.405l0.124-0.045c-4.278 1.717-7.593 5.068-9.223 9.261l-0.038 0.111c-0.89 2.226-1.325 4.597-1.291 6.99v42.229c-0.111 2.972 0.467 5.933 1.658 8.659 1.002 2.17 2.438 4.096 4.23 5.665 1.681 1.414 3.662 2.449 5.788 3.005 2.059 0.568 4.185 0.868 6.311 0.868 2.349 0.022 4.675-0.479 6.812-1.469 6.338-2.817 10.679-9.054 10.685-16.305v-4.72h-11.053v3.762c0.002 0.076 0.003 0.166 0.003 0.256 0 1.261-0.238 2.466-0.672 3.572l0.023-0.067c-0.377 0.933-0.921 1.727-1.601 2.38l-0.002 0.002c-1.265 0.983-2.869 1.586-4.613 1.614h-0.006c-0.194 0.024-0.418 0.037-0.646 0.037-1.855 0-3.5-0.902-4.519-2.292l-0.011-0.016c-0.928-1.488-1.478-3.295-1.478-5.231 0-0.149 0.003-0.297 0.010-0.444l-0.001 0.021v-39.379c-0.067-2.182 0.401-4.341 1.358-6.311 1.020-1.566 2.763-2.587 4.744-2.587 0.231 0 0.458 0.014 0.681 0.041l-0.027-0.003c0.062-0.002 0.135-0.004 0.209-0.004 1.93 0 3.642 0.932 4.711 2.37l0.011 0.016c1.141 1.489 1.829 3.378 1.829 5.428 0 0.083-0.001 0.167-0.003 0.249v-0.012 3.651h10.93v-4.307c0.001-0.056 0.001-0.122 0.001-0.188 0-2.591-0.495-5.067-1.395-7.338l0.047 0.135c-0.865-2.308-2.12-4.286-3.702-5.951l0.007 0.007zM819.523 680.849c-3.365-2.864-7.752-4.617-12.548-4.652h-0.008c-2.248 0-4.486 0.412-6.589 1.191-4.554 1.635-8.15 4.985-10.073 9.251l-0.044 0.11c-1.113 2.571-1.67 5.365-1.614 8.181v40.493c-0.067 2.849 0.479 5.677 1.614 8.303 1.002 2.17 2.449 4.107 4.274 5.654 1.692 1.558 3.673 2.783 5.832 3.562 2.115 0.779 4.341 1.18 6.589 1.191 4.823-0.012 9.223-1.811 12.576-4.771l-0.021 0.018c1.759-1.581 3.172-3.506 4.163-5.654 1.135-2.616 1.681-5.454 1.603-8.303v-40.504c0.002-0.112 0.004-0.245 0.004-0.378 0-2.817-0.591-5.495-1.656-7.918l0.050 0.126c-1.029-2.312-2.433-4.279-4.155-5.914l-0.008-0.008zM814.369 735.432c0.017 0.187 0.027 0.404 0.027 0.623 0 2.056-0.85 3.914-2.218 5.241l-0.002 0.002c-1.395 1.176-3.213 1.89-5.198 1.89s-3.802-0.714-5.21-1.9l0.012 0.010c-1.371-1.318-2.222-3.168-2.222-5.217 0-0.229 0.011-0.455 0.031-0.678l-0.002 0.029v-40.504c-0.017-0.188-0.027-0.406-0.027-0.626 0-2.052 0.85-3.905 2.218-5.227l0.002-0.002c1.395-1.178 3.213-1.894 5.198-1.894s3.803 0.716 5.21 1.904l-0.012-0.010c1.37 1.322 2.22 3.174 2.22 5.224 0 0.222-0.010 0.441-0.029 0.658l0.002-0.028v40.515zM905.65 753.53v-76.689h-10.607l-13.946 40.593h-0.189l-14.058-40.582h-10.496v76.666h10.952v-46.637h0.189l10.73 32.968h5.465l10.808-32.968h0.2v46.637h10.952zM967.88 682.229c-1.681-1.892-3.818-3.339-6.189-4.196-2.248-0.757-4.836-1.195-7.527-1.195-0.148 0-0.295 0.001-0.443 0.004h-16.251v76.689h10.919v-29.952h5.632c3.417 0.156 6.801-0.568 9.862-2.093 2.506-1.411 4.537-3.4 5.959-5.792l0.040-0.073c1.258-2.037 2.115-4.307 2.504-6.678 0.378-2.413 0.594-5.196 0.594-8.029 0-0.241-0.002-0.482-0.005-0.723v0.036c0.111-3.673-0.256-7.368-1.069-10.952-0.774-2.76-2.17-5.133-4.033-7.049l0.004 0.004zM962.248 705.603c-0.050 1.465-0.418 2.832-1.038 4.051l0.025-0.055c-0.633 1.177-1.602 2.103-2.779 2.666l-0.037 0.016c-1.348 0.621-2.925 0.983-4.587 0.983-0.199 0-0.397-0.005-0.594-0.015l0.027 0.001h-4.986v-26.067h5.632c0.157-0.008 0.341-0.013 0.525-0.013 1.599 0 3.114 0.358 4.469 0.997l-0.064-0.027c1.128 0.656 2.011 1.626 2.544 2.789l0.016 0.039c0.601 1.347 0.924 2.805 0.957 4.274v5.098c0 1.781 0.111 3.629 0 5.265h-0.111zM1019.637 676.842h-8.96l-16.896 76.689h10.93l3.206-16.473h14.893l3.217 16.473h10.919l-17.308-76.689zM1009.553 726.606l5.376-27.793h0.2l5.343 27.793h-10.919zM1090.226 723.033h-0.2l-16.495-46.191h-10.507v76.689h10.919v-46.113h0.223l16.696 46.102h10.285v-76.666h-10.919v46.191zM1156.986 676.842l-8.793 30.497h-0.223l-8.782-30.497h-11.576l15.004 44.277v32.401h10.93v-32.401l15.004-44.266h-11.565zM723.478 775.168h5.265v14.781h3.573v-14.781h5.231v-3.027h-14.069v3.027zM767.744 772.141l-6.901 17.809h3.795l1.469-4.051h7.101l1.514 4.051h3.896l-7.079-17.809h-3.795zM767.187 782.904l2.415-6.6 2.415 6.6h-4.842zM811.498 783.382h4.118v2.293c-1.148 0.927-2.622 1.492-4.227 1.503h-0.002c-0.076 0.005-0.165 0.007-0.255 0.007-1.427 0-2.698-0.665-3.522-1.701l-0.007-0.009c-0.829-1.185-1.324-2.656-1.324-4.242 0-0.14 0.004-0.28 0.012-0.419l-0.001 0.019c0-3.962 1.714-5.944 5.12-5.944 0.116-0.013 0.25-0.020 0.386-0.020 1.755 0 3.228 1.205 3.638 2.832l0.006 0.026 3.517-0.679c-0.757-3.484-3.261-5.231-7.546-5.231-0.074-0.002-0.161-0.003-0.249-0.003-2.299 0-4.396 0.867-5.981 2.292l0.008-0.007c-1.597 1.575-2.585 3.763-2.585 6.181 0 0.234 0.009 0.465 0.027 0.694l-0.002-0.030c-0.006 0.124-0.009 0.27-0.009 0.416 0 2.393 0.866 4.584 2.302 6.276l-0.012-0.014c1.572 1.618 3.768 2.623 6.199 2.623 0.196 0 0.391-0.007 0.584-0.019l-0.026 0.001c0.090 0.003 0.195 0.004 0.301 0.004 2.799 0 5.347-1.076 7.252-2.838l-0.007 0.007v-7.012h-7.713v3.005zM856.186 772.141h-3.606v17.809h12.466v-3.027h-8.86v-14.781zM893.963 772.141h-3.595v17.809h3.595v-17.809zM930.905 784.028l-7.29-11.887h-3.484v17.809h3.339v-11.631l7.157 11.631h3.584v-17.809h-3.306v11.898zM964.307 782.102h8.871v-3.027h-8.871v-3.896h9.539v-3.039h-13.145v17.809h13.512v-3.027h-9.906v-4.819zM1045.281 779.164h-7.012v-7.012h-3.562v17.798h3.562v-7.791h7.012v7.791h3.584v-17.809h-3.584v7.023zM1078.873 782.102h8.904v-3.027h-8.904v-3.896h9.572v-3.039h-13.134v17.809h13.49v-3.027h-9.906v-4.819zM1124.43 782.113c3.105-0.49 4.675-2.126 4.675-4.953 0.020-0.155 0.031-0.334 0.031-0.515 0-1.417-0.697-2.671-1.766-3.439l-0.013-0.009c-1.314-0.675-2.868-1.070-4.513-1.070-0.245 0-0.488 0.009-0.728 0.026l0.032-0.002h-7.546v17.798h3.584v-7.446h0.701c0.085-0.005 0.184-0.008 0.283-0.008 0.703 0 1.371 0.151 1.973 0.421l-0.030-0.012c0.523 0.323 0.957 0.768 1.269 1.302l3.885 5.654h4.274l-2.17-3.473c-0.979-1.739-2.306-3.173-3.896-4.246l-0.044-0.028zM1120.824 779.642h-2.638v-4.463h2.816c0.226-0.020 0.489-0.031 0.755-0.031 1.027 0 2.015 0.166 2.939 0.473l-0.066-0.019c0.478 0.434 0.778 1.057 0.778 1.751 0 0.397-0.098 0.772-0.272 1.1l0.006-0.013c-0.171 0.312-0.399 0.572-0.673 0.775l-0.006 0.005c-0.89 0.282-1.914 0.445-2.976 0.445-0.233 0-0.465-0.008-0.694-0.023l0.031 0.002zM1158.79 782.102h8.86v-3.027h-8.86v-3.896h9.572v-3.039h-13.178v17.809h13.512v-3.027h-9.906v-4.819z"></path>
</svg>
