<!-- Generated by IcoMoon.io -->
<svg version="1.1" xmlns="http://www.w3.org/2000/svg" width="1892" height="1024" viewBox="0 0 1892 1024">
<title></title>
<g id="icomoon-ignore">
</g>
<path d="M950.817 483.15c-4.244-5.473-6.803-12.438-6.803-20 0-0.748 0.025-1.491 0.074-2.227l-0.005 0.1v-32.1c0-9.828 2.226-17.308 6.701-22.428 4.452-5.12 12.121-7.658 22.984-7.635 10.207 0 17.464 2.182 21.749 6.534 4.675 5.554 6.945 12.344 6.422 19.189v7.546h-18.254v-7.635c0.056-2.504-0.111-5.009-0.534-7.48-0.315-1.808-1.262-3.353-2.602-4.43l-0.014-0.011c-1.644-1.105-3.669-1.764-5.847-1.764-0.269 0-0.535 0.010-0.799 0.030l0.035-0.002c-0.232-0.017-0.502-0.027-0.775-0.027-2.303 0-4.443 0.696-6.222 1.889l0.040-0.025c-1.51 1.213-2.592 2.904-3.017 4.841l-0.010 0.057c-0.463 2.199-0.728 4.726-0.728 7.315 0 0.215 0.002 0.429 0.005 0.642v-0.032 38.957c-0.289 3.751 0.523 7.513 2.337 10.93 0.949 1.174 2.18 2.083 3.592 2.629l0.059 0.020c1.077 0.432 2.326 0.682 3.634 0.682 0.382 0 0.76-0.021 1.131-0.063l-0.046 0.004c0.226 0.018 0.488 0.029 0.753 0.029 2.135 0 4.113-0.673 5.733-1.819l-0.031 0.021c1.41-1.174 2.396-2.816 2.72-4.684l0.007-0.047c0.434-2.582 0.623-5.198 0.568-7.802v-7.903h18.265v7.213c0.039 0.57 0.062 1.236 0.062 1.906 0 6.934-2.402 13.306-6.418 18.332l0.045-0.059c-4.196 4.764-11.353 7.146-21.86 7.146s-18.454-2.549-22.951-7.836zM1026.861 483.484c-4.619-5.009-6.923-12.277-6.923-21.916v-33.747c0-9.539 2.304-16.751 6.923-21.649 4.608-4.897 12.321-7.335 23.14-7.313 10.741 0 18.41 2.449 23.029 7.313 4.608 4.897 6.957 12.11 6.957 21.649v33.747c0 9.539-2.337 16.851-7.034 21.882-4.686 5.020-12.321 7.535-22.951 7.535s-18.488-2.549-23.151-7.502zM1058.504 475.381c1.658-3.117 2.404-6.556 2.193-9.984v-41.338c0.021-0.333 0.034-0.721 0.034-1.113 0-3.18-0.808-6.17-2.23-8.778l0.048 0.096c-0.967-1.194-2.226-2.116-3.669-2.663l-0.059-0.020c-1.062-0.415-2.292-0.655-3.578-0.655-0.438 0-0.869 0.028-1.291 0.082l0.050-0.005c-0.371-0.048-0.8-0.075-1.235-0.075-1.292 0-2.528 0.24-3.666 0.677l0.070-0.024c-1.509 0.568-2.774 1.489-3.739 2.667l-0.012 0.016c-1.67 3.061-2.415 6.433-2.193 9.795v41.528c-0.223 3.439 0.523 6.867 2.193 9.995 1.057 1.046 2.371 1.892 3.851 2.471 1.391 0.56 3.003 0.884 4.691 0.884s3.301-0.325 4.778-0.915l-0.087 0.031c1.48-0.579 2.783-1.425 3.851-2.471v-0.2zM1101.958 399.85h19.656l14.781 62.275 15.126-62.275h19.133l1.937 89.889h-14.147l-1.514-62.475-14.592 62.475h-11.342l-15.126-62.698-1.402 62.698h-14.291l1.781-89.889zM1194.63 399.85h30.631c17.642 0 26.468 8.504 26.468 25.522 0 16.295-9.294 24.442-27.871 24.42h-10.429v39.947h-18.911l0.111-89.901zM1220.797 438.261c1.87 0.211 3.762 0.056 5.565-0.434 1.792-0.49 3.439-1.302 4.831-2.404 2.17-3.039 3.128-6.6 2.727-10.151 0.011-0.294 0.017-0.64 0.017-0.987 0-2.55-0.339-5.020-0.975-7.368l0.045 0.197c-0.294-0.959-0.771-1.785-1.396-2.477l0.005 0.006c-0.661-0.736-1.451-1.341-2.337-1.783l-0.045-0.020c-2.203-0.931-4.765-1.472-7.454-1.472-0.346 0-0.69 0.009-1.031 0.027l0.048-0.002h-7.335v26.869h7.335zM1278.987 399.85h20.313l20.836 89.889h-17.631l-4.118-20.725h-18.109l-4.241 20.725h-17.875l20.825-89.889zM1296.351 458.607l-7.079-37.732-7.068 37.732h14.147zM1336.954 399.85h13.234l25.333 51.278v-51.278h15.694v89.889h-12.589l-25.489-53.537v53.537h-16.217l0.033-89.889zM1427.968 455.457l-21.059-55.485h17.742l12.856 35.651 12.054-35.651h17.363l-20.803 55.496v34.271h-18.154v-34.282zM980.013 529.052v4.697h-15.427v36.53h-6.467v-36.53h-15.505v-4.697h37.398zM1028.374 570.279h-4.998c-0.041 0.003-0.090 0.004-0.138 0.004-0.473 0-0.911-0.147-1.272-0.399l0.007 0.005c-0.361-0.228-0.643-0.551-0.818-0.933l-0.006-0.013-4.463-9.795h-21.404l-4.452 9.795c-0.143 0.438-0.381 0.812-0.689 1.112l-0.001 0.001c-0.362 0.246-0.809 0.392-1.289 0.392-0.040 0-0.079-0.001-0.119-0.003h-4.98l18.899-41.227h6.589l19.133 41.071zM997.064 554.975h17.842l-7.569-16.785c-0.48-1.054-0.954-2.344-1.339-3.672l-0.053-0.212c-0.267 0.779-0.49 1.536-0.712 2.193l-0.69 1.725-7.48 16.751zM1060.964 566.227c1.18 0.056 2.371 0.056 3.562 0 1.013-0.089 2.026-0.256 3.016-0.49 0.924-0.189 1.837-0.445 2.727-0.746 0.835-0.301 1.67-0.657 2.527-1.013v-9.272h-7.558c-0.021 0.001-0.045 0.002-0.070 0.002-0.363 0-0.695-0.127-0.957-0.338l0.003 0.002c-0.121-0.087-0.218-0.199-0.287-0.329l-0.003-0.005c-0.057-0.109-0.090-0.238-0.090-0.374 0-0.013 0-0.026 0.001-0.039v0.002-3.161h14.67v15.805c-2.293 1.427-4.947 2.576-7.77 3.307l-0.199 0.044c-1.558 0.401-3.128 0.679-4.73 0.857-1.837 0.178-3.673 0.256-5.521 0.256-0.071 0.001-0.156 0.001-0.24 0.001-3.325 0-6.518-0.563-9.49-1.598l0.202 0.061c-2.915-1.012-5.431-2.477-7.6-4.334l0.032 0.026c-2.023-1.794-3.665-3.966-4.824-6.413l-0.052-0.121c-1.098-2.438-1.738-5.286-1.738-8.282 0-0.093 0.001-0.187 0.002-0.28v0.014c-0.001-0.075-0.001-0.163-0.001-0.252 0-3.021 0.627-5.896 1.758-8.501l-0.053 0.138c1.080-2.449 2.749-4.675 4.875-6.534 2.159-1.859 4.73-3.306 7.569-4.274 3.228-1.057 6.678-1.581 10.129-1.536 1.759 0 3.517 0.111 5.254 0.356 1.536 0.223 3.050 0.568 4.497 1.046 1.336 0.423 2.593 0.979 3.784 1.636 1.158 0.634 2.259 1.358 3.295 2.148l-1.814 2.549c-0.152 0.236-0.359 0.425-0.603 0.552l-0.009 0.004c-0.251 0.137-0.55 0.219-0.867 0.223h-0.001c-0.431-0.010-0.833-0.128-1.181-0.329l0.012 0.006c-0.766-0.361-1.375-0.687-1.967-1.039l0.109 0.060c-0.708-0.395-1.543-0.771-2.409-1.077l-0.117-0.036c-0.965-0.349-2.135-0.665-3.337-0.89l-0.147-0.023c-1.366-0.227-2.941-0.357-4.545-0.357-0.089 0-0.177 0-0.265 0.001h0.014c-0.068-0.001-0.149-0.001-0.23-0.001-2.53 0-4.961 0.42-7.229 1.194l0.157-0.047c-2.104 0.723-4.007 1.837-5.565 3.261-1.494 1.402-2.684 3.109-3.471 5.024l-0.035 0.096c-0.802 2.040-1.267 4.402-1.267 6.873s0.465 4.833 1.312 7.004l-0.045-0.131c0.824 1.948 2.115 3.706 3.784 5.198 1.547 1.414 3.428 2.527 5.51 3.261 2.415 0.712 4.953 0.991 7.491 0.813zM1121.235 565.582h20.647v4.697h-26.958v-41.227h6.467l-0.156 36.53zM1163.364 570.279h-6.467v-41.227h6.467v41.227zM1187.406 529.252c0.388 0.188 0.717 0.439 0.988 0.743l0.003 0.003 27.637 31.076c-0.016-0.22-0.025-0.476-0.025-0.735s0.009-0.515 0.027-0.769l-0.002 0.034v-30.72h5.632v41.405h-3.25c-0.062 0.004-0.135 0.007-0.208 0.007-0.431 0-0.842-0.089-1.214-0.248l0.020 0.008c-0.394-0.206-0.729-0.466-1.010-0.776l-0.003-0.003-27.603-31.054v32.056h-5.409v-41.227h3.361c0.367 0 0.723 0.067 1.057 0.189zM1269.27 529.052v4.53h-22.906v13.613h18.566v4.374h-18.566v14.069h22.906v4.541h-29.562v-41.127h29.562zM591.716 274.421l287.11 70.389v246.628l-287.11-70.344v-246.684zM573.295 253.407v279.663l323.896 79.427v-279.641l-323.896-79.449z"></path>
<path d="M746.897 742.311l-323.94-79.482v-279.641l323.94 79.46v279.663z"></path>
<path d="M578.671 271.26l283.359 69.498-120.498 104.070-283.414-69.532 120.543-104.036zM573.295 253.407l-150.339 129.781 323.94 79.471 150.305-129.803-323.896-79.449zM765.117 726.584l132.085-114.054-132.085-32.423v146.477z"></path>
</svg>
